<svg xmlns="http://www.w3.org/2000/svg" xmlns:xlink="http://www.w3.org/1999/xlink" width="564" height="491" contentScriptType="application/ecmascript" contentStyleType="text/css" preserveAspectRatio="none" style="width:564px;height:491px;background:#fff" version="1.1" viewBox="0 0 564 491" zoomAndPan="magnify"><g><rect width="10" height="370.064" x="199.5" fill="#FFF" style="stroke:#000;stroke-width:1" y="67.897"/><rect width="10" height="14" x="204.5" fill="#FFF" style="stroke:#000;stroke-width:1" y="193.363"/><rect width="10" height="14" x="204.5" fill="#FFF" style="stroke:#000;stroke-width:1" y="388.961"/><rect width="10" height="130.866" x="436.5" fill="#FFF" style="stroke:#000;stroke-width:1" y="97.497"/><rect width="10" height="130.866" x="436.5" fill="#FFF" style="stroke:#000;stroke-width:1" y="293.095"/><rect width="367.5" height="60.733" x="153" fill="#FFF" style="stroke:#000;stroke-width:1" y="154.63"/><rect width="367.5" height="60.733" x="153" fill="#FFF" style="stroke:#000;stroke-width:1" y="350.228"/><line style="stroke:#000;stroke-width:1;stroke-dasharray:5,5" x1="68" x2="68" y1="36.297" y2="455.961"/><line style="stroke:#000;stroke-width:1;stroke-dasharray:5,5" x1="204" x2="204" y1="36.297" y2="455.961"/><line style="stroke:#000;stroke-width:1;stroke-dasharray:5,5" x1="441.5" x2="441.5" y1="36.297" y2="455.961"/><rect width="97" height="30.297" x="20" fill="#FFF" style="stroke:#000;stroke-width:1" y="5"/><text x="27" y="24.995" fill="#000" font-family="Verdana" font-size="14" lengthAdjust="spacing" textLength="83">Application</text><rect width="97" height="30.297" x="20" fill="#FFF" style="stroke:#000;stroke-width:1" y="454.961"/><text x="27" y="474.956" fill="#000" font-family="Verdana" font-size="14" lengthAdjust="spacing" textLength="83">Application</text><rect width="63" height="30.297" x="173" fill="#FFF" style="stroke:#000;stroke-width:1" y="5"/><text x="180" y="24.995" fill="#000" font-family="Verdana" font-size="14" lengthAdjust="spacing" textLength="49">Device</text><rect width="63" height="30.297" x="173" fill="#FFF" style="stroke:#000;stroke-width:1" y="454.961"/><text x="180" y="474.956" fill="#000" font-family="Verdana" font-size="14" lengthAdjust="spacing" textLength="49">Device</text><rect width="118" height="30.297" x="382.5" fill="#FFF" style="stroke:#000;stroke-width:1" y="5"/><text x="389.5" y="24.995" fill="#000" font-family="Verdana" font-size="14" lengthAdjust="spacing" textLength="104">PM Subsystem</text><rect width="118" height="30.297" x="382.5" fill="#FFF" style="stroke:#000;stroke-width:1" y="454.961"/><text x="389.5" y="474.956" fill="#000" font-family="Verdana" font-size="14" lengthAdjust="spacing" textLength="104">PM Subsystem</text><rect width="10" height="370.064" x="199.5" fill="#FFF" style="stroke:#000;stroke-width:1" y="67.897"/><rect width="10" height="14" x="204.5" fill="#FFF" style="stroke:#000;stroke-width:1" y="193.363"/><rect width="10" height="14" x="204.5" fill="#FFF" style="stroke:#000;stroke-width:1" y="388.961"/><rect width="10" height="130.866" x="436.5" fill="#FFF" style="stroke:#000;stroke-width:1" y="97.497"/><rect width="10" height="130.866" x="436.5" fill="#FFF" style="stroke:#000;stroke-width:1" y="293.095"/><polygon fill="#000" points="187.5 63.897 197.5 67.897 187.5 71.897 191.5 67.897" style="stroke:#000;stroke-width:1"/><line style="stroke:#000;stroke-width:1" x1="68.5" x2="193.5" y1="67.897" y2="67.897"/><text x="75.5" y="62.335" fill="#000" font-family="Courier" font-size="13" lengthAdjust="spacing" textLength="112">operation(dev)</text><polygon fill="#000" points="424.5 93.497 434.5 97.497 424.5 101.497 428.5 97.497" style="stroke:#000;stroke-width:1"/><line style="stroke:#000;stroke-width:1" x1="209.5" x2="430.5" y1="97.497" y2="97.497"/><text x="216.5" y="91.935" fill="#000" font-family="Courier" font-size="13" lengthAdjust="spacing" textLength="208">pm_device_runtime_get(dev)</text><line style="stroke:#000;stroke-width:1" x1="446.5" x2="488.5" y1="126.63" y2="126.63"/><line style="stroke:#000;stroke-width:1" x1="488.5" x2="488.5" y1="126.63" y2="139.63"/><line style="stroke:#000;stroke-width:1" x1="447.5" x2="488.5" y1="139.63" y2="139.63"/><polygon fill="#000" points="457.5 135.63 447.5 139.63 457.5 143.63 453.5 139.63" style="stroke:#000;stroke-width:1"/><text x="453.5" y="121.564" fill="#000" font-family="Verdana" font-size="13" lengthAdjust="spacing" textLength="97">Increase usage</text><path fill="#FFF" d="M153,154.6297 L219,154.6297 L219,161.6297 L209,171.6297 L153,171.6297 L153,154.6297" style="stroke:#000;stroke-width:1"/><rect width="367.5" height="60.733" x="153" fill="none" style="stroke:#000;stroke-width:1" y="154.63"/><text x="168" y="167.697" fill="#000" font-family="Verdana" font-size="13" font-weight="bold" lengthAdjust="spacing" textLength="21">alt</text><text x="234" y="166.84" fill="#000" font-family="Verdana" font-size="11" font-weight="bold" lengthAdjust="spacing" textLength="83">[usage == 1]</text><polygon fill="#000" points="225.5 189.363 215.5 193.363 225.5 197.363 221.5 193.363" style="stroke:#000;stroke-width:1"/><line style="stroke:#000;stroke-width:1" x1="219.5" x2="435.5" y1="193.363" y2="193.363"/><text x="231.5" y="187.8" fill="#000" font-family="Courier" font-size="13" lengthAdjust="spacing" textLength="184">PM_DEVICE_ACTION_RESUME</text><polygon fill="#000" points="424.5 203.363 434.5 207.363 424.5 211.363 428.5 207.363" style="stroke:#000;stroke-width:1"/><line style="stroke:#000;stroke-width:1;stroke-dasharray:2,2" x1="209.5" x2="430.5" y1="207.363" y2="207.363"/><polygon fill="#000" points="220.5 224.363 210.5 228.363 220.5 232.363 216.5 228.363" style="stroke:#000;stroke-width:1"/><line style="stroke:#000;stroke-width:1;stroke-dasharray:2,2" x1="214.5" x2="440.5" y1="228.363" y2="228.363"/><path fill="#FFF" d="M162,241.3625 L162,266.3625 L246,266.3625 L246,251.3625 L236,241.3625 L162,241.3625" style="stroke:#000;stroke-width:1"/><path fill="#FFF" d="M236,241.3625 L236,251.3625 L246,251.3625 L236,241.3625" style="stroke:#000;stroke-width:1"/><text x="168" y="258.429" fill="#000" font-family="Verdana" font-size="13" lengthAdjust="spacing" textLength="63">Operation</text><polygon fill="#000" points="424.5 289.095 434.5 293.095 424.5 297.095 428.5 293.095" style="stroke:#000;stroke-width:1"/><line style="stroke:#000;stroke-width:1" x1="209.5" x2="430.5" y1="293.095" y2="293.095"/><text x="216.5" y="287.533" fill="#000" font-family="Courier" font-size="13" lengthAdjust="spacing" textLength="208">pm_device_runtime_put(dev)</text><line style="stroke:#000;stroke-width:1" x1="446.5" x2="488.5" y1="322.228" y2="322.228"/><line style="stroke:#000;stroke-width:1" x1="488.5" x2="488.5" y1="322.228" y2="335.228"/><line style="stroke:#000;stroke-width:1" x1="447.5" x2="488.5" y1="335.228" y2="335.228"/><polygon fill="#000" points="457.5 331.228 447.5 335.228 457.5 339.228 453.5 335.228" style="stroke:#000;stroke-width:1"/><text x="453.5" y="317.162" fill="#000" font-family="Verdana" font-size="13" lengthAdjust="spacing" textLength="104">Decrease usage</text><path fill="#FFF" d="M153,350.2282 L219,350.2282 L219,357.2282 L209,367.2282 L153,367.2282 L153,350.2282" style="stroke:#000;stroke-width:1"/><rect width="367.5" height="60.733" x="153" fill="none" style="stroke:#000;stroke-width:1" y="350.228"/><text x="168" y="363.295" fill="#000" font-family="Verdana" font-size="13" font-weight="bold" lengthAdjust="spacing" textLength="21">alt</text><text x="234" y="362.439" fill="#000" font-family="Verdana" font-size="11" font-weight="bold" lengthAdjust="spacing" textLength="84">[usage == 0]</text><polygon fill="#000" points="225.5 384.961 215.5 388.961 225.5 392.961 221.5 388.961" style="stroke:#000;stroke-width:1"/><line style="stroke:#000;stroke-width:1" x1="219.5" x2="435.5" y1="388.961" y2="388.961"/><text x="231.5" y="383.399" fill="#000" font-family="Courier" font-size="13" lengthAdjust="spacing" textLength="192">PM_DEVICE_ACTION_SUSPEND</text><polygon fill="#000" points="424.5 398.961 434.5 402.961 424.5 406.961 428.5 402.961" style="stroke:#000;stroke-width:1"/><line style="stroke:#000;stroke-width:1;stroke-dasharray:2,2" x1="209.5" x2="430.5" y1="402.961" y2="402.961"/><polygon fill="#000" points="220.5 419.961 210.5 423.961 220.5 427.961 216.5 423.961" style="stroke:#000;stroke-width:1"/><line style="stroke:#000;stroke-width:1;stroke-dasharray:2,2" x1="214.5" x2="440.5" y1="423.961" y2="423.961"/><polygon fill="#000" points="79.5 433.961 69.5 437.961 79.5 441.961 75.5 437.961" style="stroke:#000;stroke-width:1"/><line style="stroke:#000;stroke-width:1;stroke-dasharray:2,2" x1="73.5" x2="203.5" y1="437.961" y2="437.961"/></g></svg>