<svg xmlns="http://www.w3.org/2000/svg" xmlns:xlink="http://www.w3.org/1999/xlink" width="757" height="592" contentScriptType="application/ecmascript" contentStyleType="text/css" preserveAspectRatio="none" style="width:757px;height:592px;background:#fff" version="1.1" viewBox="0 0 757 592" zoomAndPan="magnify"><g><rect width="10" height="368.597" x="199.5" fill="#FFF" style="stroke:#000;stroke-width:1" y="67.897"/><rect width="10" height="14" x="204.5" fill="#FFF" style="stroke:#000;stroke-width:1" y="193.363"/><rect width="10" height="14" x="199.5" fill="#FFF" style="stroke:#000;stroke-width:1" y="518.227"/><rect width="10" height="130.866" x="484.5" fill="#FFF" style="stroke:#000;stroke-width:1" y="97.497"/><rect width="10" height="129.398" x="484.5" fill="#FFF" style="stroke:#000;stroke-width:1" y="293.095"/><rect width="415.5" height="60.733" x="153" fill="#FFF" style="stroke:#000;stroke-width:1" y="154.63"/><rect width="219" height="59.266" x="410.5" fill="#FFF" style="stroke:#000;stroke-width:1" y="350.228"/><rect width="598.5" height="88.733" x="153" fill="#FFF" style="stroke:#000;stroke-width:1" y="451.494"/><line style="stroke:#000;stroke-width:1;stroke-dasharray:5,5" x1="68" x2="68" y1="36.297" y2="468.627"/><line style="stroke:#000;stroke-width:1;stroke-dasharray:1,4" x1="68" x2="68" y1="468.627" y2="496.627"/><line style="stroke:#000;stroke-width:1;stroke-dasharray:5,5" x1="68" x2="68" y1="496.627" y2="557.227"/><line style="stroke:#000;stroke-width:1;stroke-dasharray:5,5" x1="204" x2="204" y1="36.297" y2="468.627"/><line style="stroke:#000;stroke-width:1;stroke-dasharray:1,4" x1="204" x2="204" y1="468.627" y2="496.627"/><line style="stroke:#000;stroke-width:1;stroke-dasharray:5,5" x1="204" x2="204" y1="496.627" y2="557.227"/><line style="stroke:#000;stroke-width:1;stroke-dasharray:5,5" x1="489.5" x2="489.5" y1="36.297" y2="468.627"/><line style="stroke:#000;stroke-width:1;stroke-dasharray:1,4" x1="489.5" x2="489.5" y1="468.627" y2="496.627"/><line style="stroke:#000;stroke-width:1;stroke-dasharray:5,5" x1="489.5" x2="489.5" y1="496.627" y2="557.227"/><line style="stroke:#000;stroke-width:1;stroke-dasharray:5,5" x1="654.5" x2="654.5" y1="36.297" y2="468.627"/><line style="stroke:#000;stroke-width:1;stroke-dasharray:1,4" x1="654.5" x2="654.5" y1="468.627" y2="496.627"/><line style="stroke:#000;stroke-width:1;stroke-dasharray:5,5" x1="654.5" x2="654.5" y1="496.627" y2="557.227"/><rect width="97" height="30.297" x="20" fill="#FFF" style="stroke:#000;stroke-width:1" y="5"/><text x="27" y="24.995" fill="#000" font-family="Verdana" font-size="14" lengthAdjust="spacing" textLength="83">Application</text><rect width="97" height="30.297" x="20" fill="#FFF" style="stroke:#000;stroke-width:1" y="556.227"/><text x="27" y="576.222" fill="#000" font-family="Verdana" font-size="14" lengthAdjust="spacing" textLength="83">Application</text><rect width="63" height="30.297" x="173" fill="#FFF" style="stroke:#000;stroke-width:1" y="5"/><text x="180" y="24.995" fill="#000" font-family="Verdana" font-size="14" lengthAdjust="spacing" textLength="49">Device</text><rect width="63" height="30.297" x="173" fill="#FFF" style="stroke:#000;stroke-width:1" y="556.227"/><text x="180" y="576.222" fill="#000" font-family="Verdana" font-size="14" lengthAdjust="spacing" textLength="49">Device</text><rect width="118" height="30.297" x="430.5" fill="#FFF" style="stroke:#000;stroke-width:1" y="5"/><text x="437.5" y="24.995" fill="#000" font-family="Verdana" font-size="14" lengthAdjust="spacing" textLength="104">PM Subsystem</text><rect width="118" height="30.297" x="430.5" fill="#FFF" style="stroke:#000;stroke-width:1" y="556.227"/><text x="437.5" y="576.222" fill="#000" font-family="Verdana" font-size="14" lengthAdjust="spacing" textLength="104">PM Subsystem</text><rect width="153" height="30.297" x="578.5" fill="#FFF" style="stroke:#000;stroke-width:1" y="5"/><text x="585.5" y="24.995" fill="#000" font-family="Verdana" font-size="14" lengthAdjust="spacing" textLength="139">System Workqueue</text><rect width="153" height="30.297" x="578.5" fill="#FFF" style="stroke:#000;stroke-width:1" y="556.227"/><text x="585.5" y="576.222" fill="#000" font-family="Verdana" font-size="14" lengthAdjust="spacing" textLength="139">System Workqueue</text><rect width="10" height="368.597" x="199.5" fill="#FFF" style="stroke:#000;stroke-width:1" y="67.897"/><rect width="10" height="14" x="204.5" fill="#FFF" style="stroke:#000;stroke-width:1" y="193.363"/><rect width="10" height="14" x="199.5" fill="#FFF" style="stroke:#000;stroke-width:1" y="518.227"/><rect width="10" height="130.866" x="484.5" fill="#FFF" style="stroke:#000;stroke-width:1" y="97.497"/><rect width="10" height="129.398" x="484.5" fill="#FFF" style="stroke:#000;stroke-width:1" y="293.095"/><polygon fill="#000" points="187.5 63.897 197.5 67.897 187.5 71.897 191.5 67.897" style="stroke:#000;stroke-width:1"/><line style="stroke:#000;stroke-width:1" x1="68.5" x2="193.5" y1="67.897" y2="67.897"/><text x="75.5" y="62.335" fill="#000" font-family="Courier" font-size="13" lengthAdjust="spacing" textLength="112">operation(dev)</text><polygon fill="#000" points="472.5 93.497 482.5 97.497 472.5 101.497 476.5 97.497" style="stroke:#000;stroke-width:1"/><line style="stroke:#000;stroke-width:1" x1="209.5" x2="478.5" y1="97.497" y2="97.497"/><text x="216.5" y="91.935" fill="#000" font-family="Courier" font-size="13" lengthAdjust="spacing" textLength="208">pm_device_runtime_get(dev)</text><line style="stroke:#000;stroke-width:1" x1="494.5" x2="536.5" y1="126.63" y2="126.63"/><line style="stroke:#000;stroke-width:1" x1="536.5" x2="536.5" y1="126.63" y2="139.63"/><line style="stroke:#000;stroke-width:1" x1="495.5" x2="536.5" y1="139.63" y2="139.63"/><polygon fill="#000" points="505.5 135.63 495.5 139.63 505.5 143.63 501.5 139.63" style="stroke:#000;stroke-width:1"/><text x="501.5" y="121.564" fill="#000" font-family="Verdana" font-size="13" lengthAdjust="spacing" textLength="97">Increase usage</text><path fill="#FFF" d="M153,154.6297 L219,154.6297 L219,161.6297 L209,171.6297 L153,171.6297 L153,154.6297" style="stroke:#000;stroke-width:1"/><rect width="415.5" height="60.733" x="153" fill="none" style="stroke:#000;stroke-width:1" y="154.63"/><text x="168" y="167.697" fill="#000" font-family="Verdana" font-size="13" font-weight="bold" lengthAdjust="spacing" textLength="21">alt</text><text x="234" y="166.84" fill="#000" font-family="Verdana" font-size="11" font-weight="bold" lengthAdjust="spacing" textLength="83">[usage == 1]</text><polygon fill="#000" points="225.5 189.363 215.5 193.363 225.5 197.363 221.5 193.363" style="stroke:#000;stroke-width:1"/><line style="stroke:#000;stroke-width:1" x1="219.5" x2="483.5" y1="193.363" y2="193.363"/><text x="231.5" y="187.8" fill="#000" font-family="Courier" font-size="13" lengthAdjust="spacing" textLength="184">PM_DEVICE_ACTION_RESUME</text><polygon fill="#000" points="472.5 203.363 482.5 207.363 472.5 211.363 476.5 207.363" style="stroke:#000;stroke-width:1"/><line style="stroke:#000;stroke-width:1;stroke-dasharray:2,2" x1="209.5" x2="478.5" y1="207.363" y2="207.363"/><polygon fill="#000" points="220.5 224.363 210.5 228.363 220.5 232.363 216.5 228.363" style="stroke:#000;stroke-width:1"/><line style="stroke:#000;stroke-width:1;stroke-dasharray:2,2" x1="214.5" x2="488.5" y1="228.363" y2="228.363"/><path fill="#FFF" d="M162,241.3625 L162,266.3625 L246,266.3625 L246,251.3625 L236,241.3625 L162,241.3625" style="stroke:#000;stroke-width:1"/><path fill="#FFF" d="M236,241.3625 L236,251.3625 L246,251.3625 L236,241.3625" style="stroke:#000;stroke-width:1"/><text x="168" y="258.429" fill="#000" font-family="Verdana" font-size="13" lengthAdjust="spacing" textLength="63">Operation</text><polygon fill="#000" points="472.5 289.095 482.5 293.095 472.5 297.095 476.5 293.095" style="stroke:#000;stroke-width:1"/><line style="stroke:#000;stroke-width:1" x1="209.5" x2="478.5" y1="293.095" y2="293.095"/><text x="216.5" y="287.533" fill="#000" font-family="Courier" font-size="13" lengthAdjust="spacing" textLength="256">pm_device_runtime_put_async(dev)</text><line style="stroke:#000;stroke-width:1" x1="494.5" x2="536.5" y1="322.228" y2="322.228"/><line style="stroke:#000;stroke-width:1" x1="536.5" x2="536.5" y1="322.228" y2="335.228"/><line style="stroke:#000;stroke-width:1" x1="495.5" x2="536.5" y1="335.228" y2="335.228"/><polygon fill="#000" points="505.5 331.228 495.5 335.228 505.5 339.228 501.5 335.228" style="stroke:#000;stroke-width:1"/><text x="501.5" y="317.162" fill="#000" font-family="Verdana" font-size="13" lengthAdjust="spacing" textLength="104">Decrease usage</text><path fill="#FFF" d="M410.5,350.2282 L476.5,350.2282 L476.5,357.2282 L466.5,367.2282 L410.5,367.2282 L410.5,350.2282" style="stroke:#000;stroke-width:1"/><rect width="219" height="59.266" x="410.5" fill="none" style="stroke:#000;stroke-width:1" y="350.228"/><text x="425.5" y="363.295" fill="#000" font-family="Verdana" font-size="13" font-weight="bold" lengthAdjust="spacing" textLength="21">alt</text><text x="491.5" y="362.439" fill="#000" font-family="Verdana" font-size="11" font-weight="bold" lengthAdjust="spacing" textLength="84">[usage == 0]</text><line style="stroke:#000;stroke-width:1" x1="494.5" x2="536.5" y1="388.494" y2="388.494"/><line style="stroke:#000;stroke-width:1" x1="536.5" x2="536.5" y1="388.494" y2="401.494"/><line style="stroke:#000;stroke-width:1" x1="495.5" x2="536.5" y1="401.494" y2="401.494"/><polygon fill="#000" points="505.5 397.494 495.5 401.494 505.5 405.494 501.5 401.494" style="stroke:#000;stroke-width:1"/><text x="501.5" y="383.428" fill="#000" font-family="Verdana" font-size="13" lengthAdjust="spacing" textLength="116">Schedule suspend</text><polygon fill="#000" points="220.5 418.494 210.5 422.494 220.5 426.494 216.5 422.494" style="stroke:#000;stroke-width:1"/><line style="stroke:#000;stroke-width:1;stroke-dasharray:2,2" x1="214.5" x2="488.5" y1="422.494" y2="422.494"/><polygon fill="#000" points="79.5 432.494 69.5 436.494 79.5 440.494 75.5 436.494" style="stroke:#000;stroke-width:1"/><line style="stroke:#000;stroke-width:1;stroke-dasharray:2,2" x1="73.5" x2="203.5" y1="436.494" y2="436.494"/><path fill="#FFF" d="M153,451.4938 L219,451.4938 L219,458.4938 L209,468.4938 L153,468.4938 L153,451.4938" style="stroke:#000;stroke-width:1"/><rect width="598.5" height="88.733" x="153" fill="none" style="stroke:#000;stroke-width:1" y="451.494"/><text x="168" y="464.561" fill="#000" font-family="Verdana" font-size="13" font-weight="bold" lengthAdjust="spacing" textLength="21">alt</text><text x="234" y="463.704" fill="#000" font-family="Verdana" font-size="11" font-weight="bold" lengthAdjust="spacing" textLength="135">[Scheduled suspend]</text><polygon fill="#000" points="220.5 514.227 210.5 518.227 220.5 522.227 216.5 518.227" style="stroke:#000;stroke-width:1"/><line style="stroke:#000;stroke-width:1" x1="214.5" x2="654" y1="518.227" y2="518.227"/><text x="226.5" y="512.665" fill="#000" font-family="Courier" font-size="13" lengthAdjust="spacing" textLength="192">PM_DEVICE_ACTION_SUSPEND</text><polygon fill="#000" points="643 528.227 653 532.227 643 536.227 647 532.227" style="stroke:#000;stroke-width:1"/><line style="stroke:#000;stroke-width:1;stroke-dasharray:2,2" x1="204.5" x2="649" y1="532.227" y2="532.227"/></g></svg>